<?xml version="1.0" encoding="UTF-8"?>
<svg xmlns="http://www.w3.org/2000/svg" xmlns:xlink="http://www.w3.org/1999/xlink" width="612pt" height="792pt" viewBox="0 0 612 792" version="1.1">
<g id="surface1">
<path style=" stroke:none;fill-rule:nonzero;fill:rgb(16.899109%,12.199402%,5.899048%);fill-opacity:1;" d="M 323.878906 383.996094 C 319.929688 383.996094 316.992188 385.9375 316.992188 390.601563 C 316.992188 394.113281 318.929688 396.554688 323.664063 396.554688 C 327.679688 396.554688 330.40625 394.1875 330.40625 390.453125 C 330.40625 386.222656 327.964844 383.996094 323.878906 383.996094 Z M 315.984375 416.929688 C 315.050781 418.078125 314.121094 419.292969 314.121094 420.730469 C 314.121094 423.597656 317.777344 424.460938 322.800781 424.460938 C 326.964844 424.460938 332.628906 424.171875 332.628906 420.300781 C 332.628906 418.003906 329.902344 417.859375 326.457031 417.644531 Z M 337.21875 384.214844 C 338.511719 385.867188 339.875 388.160156 339.875 391.460938 C 339.875 399.425781 333.632813 404.085938 324.597656 404.085938 C 322.300781 404.085938 320.21875 403.800781 318.929688 403.441406 L 316.558594 407.242188 L 323.589844 407.671875 C 336 408.464844 343.316406 408.824219 343.316406 418.359375 C 343.316406 426.613281 336.070313 431.273438 323.589844 431.273438 C 310.605469 431.273438 305.65625 427.972656 305.65625 422.308594 C 305.65625 419.078125 307.089844 417.359375 309.601563 414.988281 C 307.234375 413.988281 306.445313 412.195313 306.445313 410.257813 C 306.445313 408.679688 307.234375 407.242188 308.527344 405.878906 C 309.816406 404.519531 311.253906 403.152344 312.972656 401.574219 C 309.460938 399.855469 306.804688 396.121094 306.804688 390.8125 C 306.804688 382.5625 312.257813 376.898438 323.230469 376.898438 C 326.316406 376.898438 328.183594 377.183594 329.832031 377.617188 L 343.820313 377.617188 L 343.820313 383.710938 L 337.21875 384.214844 "/>
<path style=" stroke:none;fill-rule:nonzero;fill:rgb(16.899109%,12.199402%,5.899048%);fill-opacity:1;" d="M 356.441406 371.179688 C 352.351563 371.179688 349.984375 368.808594 349.984375 364.71875 C 349.984375 360.632813 352.351563 358.40625 356.441406 358.40625 C 360.601563 358.40625 362.972656 360.632813 362.972656 364.71875 C 362.972656 368.808594 360.601563 371.179688 356.441406 371.179688 Z M 347.1875 414.289063 L 347.1875 408.625 L 350.847656 408.125 C 351.851563 407.980469 351.992188 407.765625 351.992188 406.6875 L 351.992188 385.597656 C 351.992188 384.808594 351.777344 384.304688 351.058594 384.09375 L 347.1875 382.726563 L 347.976563 376.917969 L 362.824219 376.917969 L 362.824219 406.6875 C 362.824219 407.835938 362.894531 407.980469 363.976563 408.125 L 367.632813 408.625 L 367.632813 414.289063 L 347.1875 414.289063 "/>
<path style=" stroke:none;fill-rule:nonzero;fill:rgb(16.899109%,12.199402%,5.899048%);fill-opacity:1;" d="M 396 411.511719 C 392.914063 413.015625 388.394531 414.378906 384.308594 414.378906 C 375.769531 414.378906 372.542969 410.9375 372.542969 402.828125 L 372.542969 384.03125 C 372.542969 383.605469 372.542969 383.316406 371.96875 383.316406 L 366.945313 383.316406 L 366.945313 376.929688 C 373.261719 376.210938 375.769531 373.054688 376.558594 365.234375 L 383.375 365.234375 L 383.375 375.425781 C 383.375 375.925781 383.375 376.144531 383.949219 376.144531 L 394.0625 376.144531 L 394.0625 383.316406 L 383.375 383.316406 L 383.375 400.460938 C 383.375 404.691406 384.382813 406.339844 388.253906 406.339844 C 390.265625 406.339844 392.34375 405.839844 394.0625 405.195313 L 396 411.503906 L 396 411.511719 "/>
<path style=" stroke:none;fill-rule:nonzero;fill:rgb(92.199707%,11.399841%,14.498901%);fill-opacity:1;" d="M 289.710938 392.683594 L 256.90625 359.882813 C 255.019531 357.996094 251.957031 357.996094 250.066406 359.882813 L 243.253906 366.695313 L 251.894531 375.335938 C 253.902344 374.65625 256.207031 375.113281 257.804688 376.714844 C 259.414063 378.324219 259.867188 380.644531 259.171875 382.660156 L 267.496094 390.988281 C 269.511719 390.292969 271.835938 390.742188 273.445313 392.355469 C 275.695313 394.601563 275.695313 398.246094 273.445313 400.496094 C 271.195313 402.742188 267.554688 402.742188 265.304688 400.496094 C 263.613281 398.800781 263.191406 396.316406 264.050781 394.234375 L 256.285156 386.46875 L 256.28125 406.902344 C 256.832031 407.175781 257.347656 407.539063 257.804688 407.992188 C 260.054688 410.242188 260.054688 413.882813 257.804688 416.136719 C 255.558594 418.382813 251.910156 418.382813 249.664063 416.136719 C 247.417969 413.882813 247.417969 410.242188 249.664063 407.992188 C 250.222656 407.4375 250.863281 407.019531 251.550781 406.734375 L 251.550781 386.109375 C 250.863281 385.828125 250.222656 385.414063 249.664063 384.855469 C 247.960938 383.152344 247.550781 380.652344 248.425781 378.5625 L 239.910156 370.042969 L 217.417969 392.53125 C 215.527344 394.421875 215.527344 397.484375 217.417969 399.375 L 250.21875 432.175781 C 251.15625 433.113281 252.386719 433.585938 253.621094 433.59375 L 253.65625 433.59375 C 254.890625 433.585938 256.121094 433.113281 257.0625 432.175781 L 289.710938 399.527344 C 291.597656 397.636719 291.597656 394.574219 289.710938 392.683594 "/>
</g>
</svg>
